HIERARCHY
ROOT hip
{
  OFFSET 0 0 0
  CHANNELS 6 Xposition Yposition Zposition Zrotation Yrotation Xrotation
  JOINT abdomen
  {
    OFFSET 0 20.6881 -0.73152
    CHANNELS 3 Zrotation Xrotation Yrotation
    JOINT chest
    {
      OFFSET 0 11.7043 -0.48768
      CHANNELS 3 Zrotation Xrotation Yrotation
      JOINT neck
      {
        OFFSET 0 22.1894 -2.19456
        CHANNELS 3 Zrotation Xrotation Yrotation
        JOINT head
        {
          OFFSET -0.24384 7.07133 1.2192
          CHANNELS 3 Zrotation Xrotation Yrotation
          JOINT leftEye
          {
            OFFSET 4.14528 8.04674 8.04672
            CHANNELS 3 Zrotation Xrotation Yrotation
            End Site
            {
              OFFSET 1 0 0
            }
          }
          JOINT rightEye
          {
            OFFSET -3.6576 8.04674 8.04672
            CHANNELS 3 Zrotation Xrotation Yrotation
            End Site
            {
              OFFSET 1 0 0
            }
          }
        }
      }
      JOINT rCollar
      {
        OFFSET -2.68224 19.2634 -4.8768
        CHANNELS 3 Zrotation Xrotation Yrotation
        JOINT rShldr
        {
          OFFSET -8.77824 -1.95073 1.46304
          CHANNELS 3 Zrotation Xrotation Yrotation
          JOINT rForeArm
          {
            OFFSET -28.1742 -1.7115 0.48768
            CHANNELS 3 Zrotation Xrotation Yrotation
            JOINT rHand
            {
              OFFSET -22.5879 0.773209 7.07136
              CHANNELS 3 Zrotation Xrotation Yrotation
              JOINT rThumb1
              {
                OFFSET -1.2192 -0.487915 3.41376
                CHANNELS 3 Zrotation Xrotation Yrotation
                JOINT rThumb2
                {
                  OFFSET -3.37035 -0.52449 3.41376
                  CHANNELS 3 Zrotation Xrotation Yrotation
                  End Site
                  {
                    OFFSET -1.78271 -1.18214 1.43049
                  }
                }
              }
              JOINT rIndex1
              {
                OFFSET -7.75947 0.938293 5.60832
                CHANNELS 3 Zrotation Xrotation Yrotation
                JOINT rIndex2
                {
                  OFFSET -2.54057 -0.884171 1.56538
                  CHANNELS 3 Zrotation Xrotation Yrotation
                  End Site
                  {
                    OFFSET -1.62519 -0.234802 1.16502
                  }
                }
              }
              JOINT rMid1
              {
                OFFSET -8.24714 1.18213 3.41376
                CHANNELS 3 Zrotation Xrotation Yrotation
                JOINT rMid2
                {
                  OFFSET -3.10165 -0.590103 1.0647
                  CHANNELS 3 Zrotation Xrotation Yrotation
                  End Site
                  {
                    OFFSET -2.48547 -0.328903 0.83742
                  }
                }
              }
              JOINT rRing1
              {
                OFFSET -8.82822 0.546677 1.51678
                CHANNELS 3 Zrotation Xrotation Yrotation
                JOINT rRing2
                {
                  OFFSET -2.60934 -0.819778 -0.0198488
                  CHANNELS 3 Zrotation Xrotation Yrotation
                  End Site
                  {
                    OFFSET -2.33842 -0.294052 0.168128
                  }
                }
              }
              JOINT rPinky1
              {
                OFFSET -8.27202 -0.0477905 -0.4584
                CHANNELS 3 Zrotation Xrotation Yrotation
                JOINT rPinky2
                {
                  OFFSET -1.82734 -0.647385 -0.700984
                  CHANNELS 3 Zrotation Xrotation Yrotation
                  End Site
                  {
                    OFFSET -1.69225 -0.51767 -0.607171
                  }
                }
              }
            }
          }
        }
      }
      JOINT lCollar
      {
        OFFSET 2.68224 19.2634 -4.8768
        CHANNELS 3 Zrotation Xrotation Yrotation
        JOINT lShldr
        {
          OFFSET 8.77824 -1.95073 1.46304
          CHANNELS 3 Zrotation Xrotation Yrotation
          JOINT lForeArm
          {
            OFFSET 28.1742 -1.7115 0.48768
            CHANNELS 3 Zrotation Xrotation Yrotation
            JOINT lHand
            {
              OFFSET 22.5879 0.773209 7.07136
              CHANNELS 3 Zrotation Xrotation Yrotation
              JOINT lThumb1
              {
                OFFSET 1.2192 -0.487915 3.41376
                CHANNELS 3 Zrotation Xrotation Yrotation
                JOINT lThumb2
                {
                  OFFSET 3.37035 -0.52449 3.41376
                  CHANNELS 3 Zrotation Xrotation Yrotation
                  End Site
                  {
                    OFFSET 1.78271 -1.18214 1.43049
                  }
                }
              }
              JOINT lIndex1
              {
                OFFSET 7.75947 0.938293 5.60832
                CHANNELS 3 Zrotation Xrotation Yrotation
                JOINT lIndex2
                {
                  OFFSET 2.54057 -0.884171 1.56538
                  CHANNELS 3 Zrotation Xrotation Yrotation
                  End Site
                  {
                    OFFSET 1.62519 -0.234802 1.16502
                  }
                }
              }
              JOINT lMid1
              {
                OFFSET 8.24714 1.18213 3.41376
                CHANNELS 3 Zrotation Xrotation Yrotation
                JOINT lMid2
                {
                  OFFSET 3.10165 -0.590103 1.0647
                  CHANNELS 3 Zrotation Xrotation Yrotation
                  End Site
                  {
                    OFFSET 2.48547 -0.328903 0.83742
                  }
                }
              }
              JOINT lRing1
              {
                OFFSET 8.82822 0.546677 1.51678
                CHANNELS 3 Zrotation Xrotation Yrotation
                JOINT lRing2
                {
                  OFFSET 2.60934 -0.819778 -0.0198488
                  CHANNELS 3 Zrotation Xrotation Yrotation
                  End Site
                  {
                    OFFSET 2.33842 -0.294052 0.168128
                  }
                }
              }
              JOINT lPinky1
              {
                OFFSET 8.27202 -0.0477905 -0.4584
                CHANNELS 3 Zrotation Xrotation Yrotation
                JOINT lPinky2
                {
                  OFFSET 1.82734 -0.647385 -0.700984
                  CHANNELS 3 Zrotation Xrotation Yrotation
                  End Site
                  {
                    OFFSET 1.69225 -0.51767 -0.607171
                  }
                }
              }
            }
          }
        }
      }
    }
  }
  JOINT rButtock
  {
    OFFSET -8.77824 4.35084 1.2192
    CHANNELS 3 Zrotation Xrotation Yrotation
    JOINT rThigh
    {
      OFFSET 0 -1.70687 -2.19456
      CHANNELS 3 Zrotation Xrotation Yrotation
      JOINT rShin
      {
        OFFSET 0 -36.8199 0.73152
        CHANNELS 3 Zrotation Xrotation Yrotation
        JOINT rFoot
        {
          OFFSET 0.73152 -45.1104 -5.12064
          CHANNELS 3 Zrotation Xrotation Yrotation
          End Site
          {
            OFFSET -1.1221 -3.69964 12.103
          }
        }
      }
    }
  }
  JOINT lButtock
  {
    OFFSET 8.77824 4.35084 1.2192
    CHANNELS 3 Zrotation Xrotation Yrotation
    JOINT lThigh
    {
      OFFSET 0 -1.70687 -2.19456
      CHANNELS 3 Zrotation Xrotation Yrotation
      JOINT lShin
      {
        OFFSET 0 -36.8199 0.73152
        CHANNELS 3 Zrotation Xrotation Yrotation
        JOINT lFoot
        {
          OFFSET -0.73152 -45.1104 -5.12064
          CHANNELS 3 Zrotation Xrotation Yrotation
          End Site
          {
            OFFSET 1.1221 -3.69964 12.103
          }
        }
      }
    }
  }
}
MOTION
Frames:	5
Frame Time:	0.00833333
-44.3301 85.1388 217.71 0.0 0.0 0.0 0.410591 -0.00336426 0.0117807 0.113459 -0.00539523 0.0196594 -1.10908e-14 0.0 9.31803e-17 -3.3284e-14 3.18055e-15 3.10601e-16 -0.0 0.0 0.0 -0.0 0.0 0.0 -5.4681e-15 -3.30014e-18 1.98785e-16 -1.1416e-13 -3.16813e-16 1.39149e-15 -2.00514e-12 5.97944e-13 5.40694e-14 -2.29494e-11 -6.04454e-13 1.43125e-13 -5.41384e-11 -7.9747e-15 4.45278e-13 -9.34976e-11 -1.90833e-14 7.70489e-13 -5.4133e-11 -5.56597e-15 4.35736e-13 7.73091 5.47488 0.417314 -5.41402e-11 -8.34896e-15 4.48458e-13 2.90554 0.965183 0.102902 -5.41316e-11 -7.55382e-15 4.46073e-13 10.2786 0.731801 0.0259123 -5.41462e-11 -6.36111e-15 4.58e-13 2.22167 -0.733487 -0.20892 -5.56481e-15 -2.91188e-18 -9.93923e-17 -1.18093e-13 -5.09386e-16 -3.97569e-16 -2.00907e-12 -5.99932e-13 2.8625e-14 -2.29569e-11 5.97149e-13 1.81292e-13 -5.41549e-11 8.5037e-17 4.45278e-13 -9.35143e-11 6.36111e-15 7.7526e-13 -5.41613e-11 2.78299e-15 4.6118e-13 -7.73091 5.47488 -0.417314 -5.41544e-11 0.0 4.45278e-13 -2.90554 0.965183 -0.102902 -5.41597e-11 3.97569e-16 4.46868e-13 -10.2786 0.731801 -0.0259123 -5.41541e-11 1.19271e-15 4.38917e-13 -2.22167 -0.733487 0.20892 -2.03217e-16 0.0 -3.88251e-19 0.77059 -4.17183 -0.065681 -0.00265476 2.00555 -0.0182693 -0.461814 2.16687 0.0960988 2.03217e-16 0.0 3.88251e-19 -0.14325 -2.55995 0.0260688 0.00716331 -0.914092 0.0621728 0.453789 3.47458 -0.121227
-43.2093 83.4893 211.861 -178.122 3.2392 -154.047 -0.241699 -9.02313 -2.30138 0.94615 4.27825 -0.595514 -2.72238 6.07643 0.645052 4.53995 -3.75956 2.23495 -0.0 0.0 0.0 -0.0 0.0 0.0 -2.46006e-14 -5.781e-14 -3.9522e-14 23.1888 1.86216 -0.431658 -3.94385 -1.74039 6.21474 0.0123262 -2.46413 -0.345156 4.14996e-10 -5.64686e-10 1.26008e-10 7.17532e-10 -9.77228e-10 2.19373e-10 4.15005e-10 -5.64686e-10 1.25997e-10 7.73091 5.47488 0.417314 4.14995e-10 -5.64688e-10 1.26011e-10 2.90554 0.965183 0.102902 4.15004e-10 -5.64687e-10 1.26008e-10 10.2786 0.731801 0.0259123 4.14988e-10 -5.64685e-10 1.26019e-10 2.22167 -0.733487 -0.20892 -2.46492e-14 -5.78124e-14 -3.97818e-14 -20.9092 4.61698 -0.877918 3.36615 -1.39178 -5.39763 -0.0236571 3.41293 -0.476587 4.37091e-10 1.48862e-10 -3.13586e-10 7.50951e-10 2.5168e-10 -5.47617e-10 4.37086e-10 1.48865e-10 -3.13572e-10 -7.73091 5.47488 -0.417314 4.37093e-10 1.48863e-10 -3.13588e-10 -2.90554 0.965183 -0.102902 4.37086e-10 1.48863e-10 -3.13585e-10 -10.2786 0.731801 -0.0259123 4.37092e-10 1.48865e-10 -3.13592e-10 -2.22167 -0.733487 0.20892 -2.03217e-16 0.0 -3.88251e-19 0.693505 -10.913 3.22292 0.000938433 4.06763 0.0324713 -0.553959 -2.48718 -1.08597 2.03217e-16 0.0 3.88251e-19 0.200078 -8.73146 -1.08922 0.00724468 1.07194 0.0218122 0.554373 1.09966 2.08391
-43.2243 83.4823 211.889 -178.183 3.3301 -153.918 -1.76071 -18.5096 -4.95103 1.92955 8.80572 -1.25947 -5.76125 12.5134 1.34421 9.67466 -7.65864 4.61743 -0.0 0.0 0.0 -0.0 0.0 0.0 -4.82479e-14 -1.25531e-13 -8.26478e-14 47.7285 3.84448 -0.884488 -7.70491 -3.51181 12.8026 -0.00706901 -5.07692 -0.71331 9.78283e-10 -1.19463e-09 2.92318e-10 1.69117e-09 -2.06725e-09 5.08814e-10 9.78296e-10 -1.19463e-09 2.92306e-10 7.73091 5.47488 0.417314 9.78283e-10 -1.19463e-09 2.92321e-10 2.90554 0.965183 0.102902 9.78291e-10 -1.19463e-09 2.92317e-10 10.2786 0.731801 0.0259123 9.78275e-10 -1.19463e-09 2.92327e-10 2.22167 -0.733487 -0.20892 -4.82466e-14 -1.25536e-13 -8.28684e-14 -42.8628 9.48585 -1.82144 6.64069 -2.82178 -11.1135 0.0135027 7.02245 -0.986391 1.0137e-09 3.29766e-10 -6.63663e-10 1.74242e-09 5.57915e-10 -1.15925e-09 1.0137e-09 3.29768e-10 -6.63651e-10 -7.73091 5.47488 -0.417314 1.01371e-09 3.29768e-10 -6.63667e-10 -2.90554 0.965183 -0.102902 1.0137e-09 3.29768e-10 -6.63662e-10 -10.2786 0.731801 -0.0259123 1.01371e-09 3.2977e-10 -6.63669e-10 -2.22167 -0.733487 0.20892 -2.03217e-16 0.0 -3.88251e-19 1.49469 -17.9522 6.90952 0.000800855 6.24914 0.0864352 -0.860491 -7.40213 -2.34698 2.03217e-16 0.0 3.88251e-19 0.295737 -15.2481 -2.32544 0.0102313 3.1726 -0.0209183 0.859606 -1.40711 4.41779
-43.2283 83.4876 211.861 -178.211 3.3872 -154.049 -3.94924 -26.8757 -7.67545 2.89342 12.8396 -1.8676 -8.59594 18.2198 2.02589 14.5121 -11.2094 6.82114 -0.0 0.0 0.0 -0.0 0.0 0.0 -6.28654e-14 -1.73423e-13 -1.18964e-13 69.6508 5.58521 -1.30047 -10.7175 -4.97594 18.7087 -0.0527165 -7.39131 -1.04318 1.35327e-09 -1.69404e-09 3.77133e-10 2.33959e-09 -2.93165e-09 6.56577e-10 1.35328e-09 -1.69405e-09 3.77121e-10 7.73091 5.47488 0.417314 1.35327e-09 -1.69405e-09 3.77136e-10 2.90554 0.965183 0.102902 1.35327e-09 -1.69405e-09 3.77132e-10 10.2786 0.731801 0.0259123 1.35326e-09 -1.69404e-09 3.77141e-10 2.22167 -0.733487 -0.20892 -6.28179e-14 -1.73431e-13 -1.19147e-13 -62.2924 13.8377 -2.70373 9.32177 -4.02735 -16.2293 0.101687 10.2359 -1.45031 1.41958e-09 4.46587e-10 -9.41648e-10 2.43988e-09 7.55026e-10 -1.6444e-09 1.41958e-09 4.4659e-10 -9.41638e-10 -7.73091 5.47488 -0.417314 1.41959e-09 4.4659e-10 -9.41654e-10 -2.90554 0.965183 -0.102902 1.41958e-09 4.46589e-10 -9.41648e-10 -10.2786 0.731801 -0.0259123 1.41959e-09 4.46593e-10 -9.41655e-10 -2.22167 -0.733487 0.20892 -2.03217e-16 0.0 -3.88251e-19 3.04382 -24.0798 10.5522 -0.00293118 8.19176 0.135063 -1.32353 -11.775 -3.52107 2.03217e-16 0.0 3.88251e-19 0.12106 -21.0429 -3.51667 0.0158144 5.044 -0.0591337 1.30332 -3.62458 6.50566
-43.2363 83.4864 211.885 -178.241 3.4678 -153.942 -6.03359 -32.62 -9.87609 3.60565 15.6454 -2.296 -10.617 22.1084 2.57894 18.0034 -13.9509 8.47711 -0.0 0.0 0.0 -0.0 0.0 0.0 -5.49084e-14 -1.71745e-13 -1.38255e-13 84.9706 6.72316 -1.61904 -12.6367 -5.90525 22.8492 -0.0995027 -8.9607 -1.26982 1.25749e-09 -1.86713e-09 2.58213e-10 2.17499e-09 -3.232e-09 4.50145e-10 1.2575e-09 -1.86713e-09 2.58201e-10 7.73091 5.47488 0.417314 1.25749e-09 -1.86713e-09 2.58217e-10 2.90554 0.965183 0.102902 1.2575e-09 -1.86713e-09 2.58213e-10 10.2786 0.731801 0.0259123 1.25748e-09 -1.86713e-09 2.5822e-10 2.22167 -0.733487 -0.20892 -5.48243e-14 -1.71754e-13 -1.38404e-13 -75.718 16.9094 -3.36768 11.0627 -4.8127 -19.81 0.194345 12.462 -1.77986 1.39863e-09 4.03202e-10 -1.03941e-09 2.4023e-09 6.79328e-10 -1.81332e-09 1.39863e-09 4.03205e-10 -1.0394e-09 -7.73091 5.47488 -0.417314 1.39863e-09 4.03206e-10 -1.03941e-09 -2.90554 0.965183 -0.102902 1.39862e-09 4.03205e-10 -1.03941e-09 -10.2786 0.731801 -0.0259123 1.39863e-09 4.03208e-10 -1.03941e-09 -2.22167 -0.733487 0.20892 -2.03217e-16 0.0 -3.88251e-19 4.64367 -28.2163 13.4113 -0.00780381 9.53713 0.169366 -1.76624 -14.8122 -4.40557 2.03217e-16 0.0 3.88251e-19 -0.172339 -25.0625 -4.41519 0.0219324 6.34227 -0.0857578 1.7054 -5.14746 7.95905
